<svg width="145" height="30" viewBox="0 0 145 30" fill="none" xmlns="http://www.w3.org/2000/svg">
<path d="M14.7734 0.906363V8.97282C14.1843 8.74624 13.6858 8.65561 13.3686 8.65561C12.7341 8.65561 12.1903 8.88219 11.7372 9.38068C11.284 9.83385 11.0574 10.423 11.0574 11.0574C11.0574 11.6012 11.284 12.3263 11.7825 13.1873L12.4169 14.3203C13.5952 16.3142 14.139 18.2629 14.139 20.1662C14.139 22.9305 13.142 25.2417 11.1934 27.145C9.24471 29.0484 6.8429 30 4.03323 30C2.67372 30 1.35952 29.6828 0 29.0484V20.8913C0.81571 21.3898 1.49547 21.6616 2.12991 21.6616C2.85498 21.6616 3.48943 21.4351 3.9426 21.0272C4.44109 20.6194 4.66767 20.0756 4.66767 19.4411C4.66767 19.0333 4.25982 18.1269 3.48943 16.7221C2.22054 14.5015 1.5861 12.3263 1.5861 10.1058C1.5861 7.43204 2.53776 5.16619 4.44109 3.21754C6.34441 1.31422 8.61027 0.31723 11.2387 0.31723C12.5076 0.31723 13.6405 0.543825 14.7734 0.906363Z" fill="#191515"/>
<path d="M26.1934 8.65561H18.4441V29.275H26.1934V8.65561Z" fill="#191515"/>
<path d="M59.0483 29.2749H51.2991V18.1269C51.2991 17.2658 51.2085 16.6767 51.0272 16.3595C50.8459 16.0423 50.5287 15.861 50.0755 15.861C49.2145 15.861 48.7613 16.6314 48.7613 18.1722V29.2749H41.0121V18.1269C41.0121 17.2658 40.9214 16.6767 40.7402 16.3595C40.5589 16.0423 40.2417 15.861 39.7432 15.861C38.8822 15.861 38.4743 16.6314 38.4743 18.1722V29.2749H30.7251V16.5861C30.7251 14.2749 31.4955 12.281 33.0816 10.6949C34.6223 9.06343 36.5257 8.24771 38.7462 8.24771C41.0574 8.24771 43.0967 9.19938 44.9094 11.148C46.9486 9.19938 48.9426 8.24771 50.9819 8.24771C53.565 8.24771 55.6495 9.19938 57.1903 11.0574C58.4139 12.5075 59.0483 14.6374 59.0483 17.4471V29.2749Z" fill="#191515"/>
<path d="M70.8309 1.0423V17.9456C70.8309 20.71 71.8279 22.0695 73.7765 22.0695C74.6375 22.0695 75.3173 21.7976 75.9064 21.2085C76.4955 20.6193 76.7674 19.9396 76.7674 19.1239C76.7674 18.2628 76.4955 17.5831 75.9517 16.994C75.4079 16.4048 74.7282 16.1329 73.9125 16.1329C73.3686 16.1329 72.6889 16.3595 71.9638 16.858V8.33838C72.8702 8.24774 73.5499 8.20243 74.0484 8.20243C76.9487 8.20243 79.4412 9.24472 81.5257 11.3293C83.6103 13.4139 84.6526 15.9517 84.6526 18.8973C84.6526 21.9335 83.6103 24.4713 81.4804 26.5106C79.3505 28.5952 76.7674 29.5922 73.6859 29.5922C72.1451 29.5922 70.6496 29.2749 69.1541 28.5952C67.704 27.9154 66.4804 27.0091 65.5288 25.8761C63.852 23.8822 63.0363 21.2991 63.0363 18.1722V0.996979H70.8309V1.0423Z" fill="#191515"/>
<path d="M97.8399 8.20242C100.786 8.20242 103.278 9.24472 105.363 11.3746C107.447 13.5045 108.489 15.997 108.489 18.9426C108.489 21.9335 107.447 24.4713 105.317 26.5559C103.187 28.6405 100.65 29.6828 97.6586 29.6828C94.6677 29.6828 92.1299 28.6405 90 26.5106C87.8701 24.3807 86.8278 21.8882 86.8278 18.8973C86.8278 15.861 87.8701 13.3233 90 11.284C92.1299 9.24471 94.7583 8.20242 97.8399 8.20242ZM97.6586 15.861C96.8429 15.861 96.1179 16.1783 95.5287 16.7674C94.9396 17.3565 94.6677 18.0816 94.6677 18.9879C94.6677 19.8489 94.9396 20.574 95.5287 21.1631C96.1179 21.7523 96.7976 22.0695 97.6133 22.0695C98.429 22.0695 99.1541 21.7523 99.7432 21.1631C100.332 20.574 100.604 19.8036 100.604 18.9879C100.604 18.1269 100.332 17.4018 99.7432 16.7674C99.1994 16.1329 98.4743 15.861 97.6586 15.861Z" fill="#191515"/>
<path d="M119.456 1.0423V29.2749H111.707V1.0423H119.456Z" fill="#191515"/>
<path d="M133.776 8.20242C136.722 8.20242 139.215 9.24472 141.299 11.3746C143.384 13.5045 144.426 15.997 144.426 18.9426C144.426 21.9335 143.384 24.4713 141.254 26.5559C139.124 28.6405 136.586 29.6828 133.595 29.6828C130.604 29.6828 128.066 28.6405 125.937 26.5106C123.807 24.3807 122.764 21.8882 122.764 18.8973C122.764 15.861 123.807 13.3233 125.937 11.284C128.066 9.24471 130.65 8.20242 133.776 8.20242ZM133.595 15.861C132.779 15.861 132.054 16.1783 131.465 16.7674C130.876 17.3565 130.604 18.0816 130.604 18.9879C130.604 19.8489 130.876 20.574 131.465 21.1631C132.054 21.7523 132.734 22.0695 133.55 22.0695C134.366 22.0695 135.091 21.7523 135.68 21.1631C136.269 20.574 136.541 19.8036 136.541 18.9879C136.541 18.1269 136.269 17.4018 135.68 16.7674C135.136 16.1329 134.411 15.861 133.595 15.861Z" fill="#191515"/>
<path d="M19.3505 6.93353L23.6556 0L31.4502 0.861025L25.6949 7.1148L19.3505 6.93353Z" fill="#191515"/>
</svg>
